<svg width="144" height="116" viewBox="0 0 144 116" fill="none" xmlns="http://www.w3.org/2000/svg">
<g id="Group 27">
<path id="Rectangle 22" d="M64.1359 41.0308C64.2924 40.9727 64.4652 40.9766 64.6189 41.0416L142.462 73.9749C143.008 74.2058 142.99 74.9854 142.435 75.1917L82.2301 97.549L2.62879 63.8718L64.1359 41.0308Z" fill="#A4D7F0"/>
<path id="Rectangle 22 (Stroke)" fill-rule="evenodd" clip-rule="evenodd" d="M142.334 74.2764L64.4914 41.3431C64.4145 41.3106 64.3281 41.3087 64.2498 41.3377L3.51589 63.8916L82.238 97.1968L142.321 74.8848C142.598 74.7816 142.607 74.3919 142.334 74.2764ZM82.2301 97.549L142.435 75.1917C142.99 74.9854 143.008 74.2058 142.462 73.9749L64.6189 41.0416C64.4652 40.9766 64.2924 40.9727 64.1359 41.0308L2.62879 63.8718L82.2301 97.549Z" fill="black"/>
<path id="Vector 1" d="M140.663 52.7105C137.225 60.4043 137.225 65.4789 140.172 74.4823L81.0773 96.0903C78.7856 92.3253 76.7649 80.048 81.7321 74.8097L140.663 52.7105Z" fill="white"/>
<path id="Vector 1 (Stroke)" fill-rule="evenodd" clip-rule="evenodd" d="M140.972 52.4197L140.812 52.7773C139.099 56.6113 138.248 59.7812 138.187 63.1083C138.126 66.4376 138.856 69.9371 140.327 74.4314L140.376 74.5817L81.007 96.2902L80.9371 96.1754C79.7713 94.2602 78.69 90.2187 78.5187 86.0091C78.3475 81.8027 79.0821 77.366 81.6129 74.697L81.6389 74.6696L140.972 52.4197ZM81.8247 74.9496C79.409 77.5222 78.6761 81.8275 78.8458 85.9958C79.0125 90.0909 80.0476 93.9938 81.1483 95.8899L139.967 74.3828C138.524 69.9453 137.798 66.4469 137.859 63.1023C137.919 59.8226 138.736 56.7028 140.356 53.0006L81.8247 74.9496Z" fill="black"/>
<path id="Rectangle 2" d="M64.1359 18.768C64.2924 18.7098 64.4652 18.7137 64.6189 18.7788L142.462 51.712C143.008 51.943 142.99 52.7225 142.435 52.9289L82.2301 75.2861L2.62879 41.6089L64.1359 18.768Z" fill="#A4D7F0"/>
<path id="Rectangle 2 (Stroke)" fill-rule="evenodd" clip-rule="evenodd" d="M142.334 52.0135L64.4914 19.0803C64.4145 19.0478 64.3281 19.0458 64.2498 19.0749L3.51589 41.6287L82.238 74.9339L142.321 52.622C142.598 52.5188 142.607 52.129 142.334 52.0135ZM82.2301 75.2861L142.435 52.9289C142.99 52.7225 143.008 51.943 142.462 51.712L64.6189 18.7788C64.4652 18.7137 64.2924 18.7098 64.1359 18.768L2.62879 41.6089L82.2301 75.2861Z" fill="black"/>
<path id="Vector 3 (Stroke)" fill-rule="evenodd" clip-rule="evenodd" d="M139.546 55.8975L118.756 63.5913L118.699 63.4378L139.489 55.744L139.546 55.8975ZM124.158 65.8831L79.796 82.2528L79.7393 82.0993L124.101 65.7295L124.158 65.8831ZM138.891 69.9755L94.5287 86.3453L94.472 86.1917L138.834 69.822L138.891 69.9755ZM119.738 73.0859L79.4684 87.8186L79.4121 87.6649L119.682 72.9321L119.738 73.0859ZM101.731 86.3452L80.9419 94.039L80.8851 93.8855L101.675 86.1917L101.731 86.3452Z" fill="black"/>
<path id="Vector 2" d="M2.82993 63.8419C-1.09216 56.7822 -0.283012 44.5671 2.65133 41.757C2.66071 41.748 2.67399 41.7461 2.68595 41.7511L82.0595 75.3008C77.0633 81.7474 80.3711 94.8584 82.2972 97.2932C82.3189 97.3206 82.2843 97.3566 82.252 97.343L2.82993 63.8419Z" fill="#1F90D6"/>
<path id="Vector 2 (Stroke)" fill-rule="evenodd" clip-rule="evenodd" d="M2.62185 41.9019C2.62182 41.9019 2.62188 41.9019 2.62185 41.9019V41.9019ZM2.70257 41.936L81.8016 75.3696C79.3779 78.6437 78.9825 83.4937 79.4193 87.8179C79.6419 90.0224 80.0819 92.1013 80.5878 93.7834C81.0073 95.1784 81.4761 96.3143 81.9111 97.0217L2.94539 63.7131C1.02331 60.2218 0.254625 55.4598 0.332771 51.2088C0.371994 49.0752 0.624493 47.0773 1.04787 45.4415C1.46039 43.8477 2.02952 42.6198 2.70257 41.936ZM2.53774 41.6388C2.59798 41.5811 2.68197 41.5719 2.74931 41.6003L82.3188 75.2328L82.1885 75.401C79.7302 78.573 79.3029 83.4084 79.745 87.785C79.9655 89.9683 80.4014 92.0266 80.9013 93.6891C81.4033 95.3584 81.9641 96.6087 82.4252 97.1916C82.4964 97.2816 82.4673 97.3879 82.4145 97.4448C82.3647 97.4984 82.2766 97.5312 82.1881 97.4938L2.7139 63.9708L2.68647 63.9214C0.706453 60.3574 -0.0736907 55.5069 0.00543145 51.2028C0.0450261 49.049 0.299872 47.0249 0.730924 45.3595C1.16031 43.7004 1.77052 42.3735 2.53774 41.6388Z" fill="black"/>
<path id="Vector 4" d="M96.9551 81.3576L102.357 79.3932C103.176 79.3932 102.684 85.6137 102.193 87.4144C101.539 87.087 100.229 86.7596 100.229 86.7596L96.9551 89.3787C96.9551 89.3787 97.7736 81.3576 96.9551 81.3576Z" fill="#FFA20C"/>
<path id="Vector 4 (Stroke)" fill-rule="evenodd" clip-rule="evenodd" d="M102.354 79.5563C102.354 79.5562 102.355 79.5562 102.356 79.5568C102.355 79.5566 102.354 79.5564 102.354 79.5563ZM102.366 79.5644C102.368 79.5665 102.371 79.5693 102.374 79.5728C102.396 79.5971 102.423 79.6432 102.452 79.7206C102.509 79.8745 102.553 80.1082 102.583 80.4096C102.644 81.0092 102.644 81.8337 102.603 82.721C102.527 84.3809 102.308 86.2274 102.083 87.1829C101.76 87.0427 101.354 86.9097 101.013 86.8074C100.807 86.7455 100.621 86.6939 100.487 86.6578C100.42 86.6397 100.365 86.6255 100.328 86.6158C100.309 86.611 100.294 86.6072 100.285 86.6047L100.273 86.6018L100.269 86.6009C100.269 86.6008 100.269 86.6008 100.229 86.7596L100.269 86.6009L100.19 86.5811L97.1558 89.0088C97.1762 88.7917 97.2035 88.4932 97.2336 88.1393C97.2976 87.3863 97.3745 86.3817 97.4258 85.3765C97.477 84.3726 97.503 83.3632 97.4642 82.6025C97.4449 82.2238 97.4091 81.8973 97.349 81.6618C97.3264 81.5732 97.2986 81.4903 97.263 81.4199L102.366 79.5644ZM96.9554 89.3787C96.7925 89.3621 96.7925 89.3621 96.7926 89.362L96.7948 89.3394L96.8015 89.2726C96.8073 89.214 96.8156 89.1281 96.826 89.0186C96.8467 88.7998 96.8755 88.487 96.9074 88.1116C96.9712 87.3606 97.0478 86.3599 97.0988 85.3598C97.1499 84.3584 97.1751 83.3626 97.1372 82.6192C97.1182 82.246 97.0836 81.9458 97.0318 81.7427C97.0056 81.6399 96.9779 81.5744 96.9539 81.5381C96.9453 81.5252 96.9396 81.5193 96.9372 81.5172C96.9397 81.5187 96.9457 81.5213 96.9554 81.5213L96.8995 81.2037L102.329 79.2295H102.357C102.467 79.2295 102.555 79.2838 102.618 79.3542C102.678 79.422 102.724 79.5112 102.759 79.6074C102.83 79.8007 102.878 80.0671 102.909 80.3769C102.972 81 102.971 81.8431 102.93 82.7361C102.848 84.5196 102.602 86.5393 102.352 87.4574L102.299 87.6501L102.121 87.5608C101.807 87.404 101.328 87.2437 100.919 87.121C100.716 87.0602 100.534 87.0094 100.402 86.9739C100.348 86.9594 100.303 86.9475 100.268 86.9385L96.7529 89.7503L96.7926 89.362L96.9554 89.3787Z" fill="#0066A6"/>
<path id="Vector" d="M56.3331 80.3911C56.0526 80.4836 55.7159 80.4469 55.3231 80.2811C54.9304 80.1153 54.5936 79.8678 54.313 79.5385C54.0324 79.2092 53.892 78.897 53.8919 78.6018C53.8918 78.3066 54.032 78.1128 54.3125 78.0204C54.5931 77.9279 54.9297 77.9646 55.3225 78.1304C55.7153 78.2962 56.052 78.5437 56.3326 78.873C56.6133 79.2023 56.7536 79.5145 56.7537 79.8097C56.7538 80.1049 56.6136 80.2987 56.3331 80.3911Z" fill="black"/>
<path id="Vector_2" d="M51.9639 69.8439L51.9666 78.6996L49.6603 77.7262L49.6586 71.9826L46.3435 74.6944L46.0742 74.5807L42.7567 69.082L42.7584 74.813L40.4353 73.8324L40.4326 64.9767L42.823 65.9856L46.2079 71.6013L49.5735 68.8349L51.9639 69.8439Z" fill="black"/>
<path id="Vector_3" d="M38.1016 72.6959C37.8211 72.7883 37.4845 72.7517 37.0917 72.5859C36.6989 72.4201 36.3622 72.1725 36.0816 71.8433C35.8009 71.514 35.6606 71.2018 35.6605 70.9066C35.6604 70.6114 35.8006 70.4176 36.0811 70.3251C36.3616 70.2327 36.6983 70.2694 37.091 70.4352C37.4838 70.601 37.8206 70.8485 38.1012 71.1778C38.3818 71.5071 38.5222 71.8193 38.5223 72.1145C38.5224 72.4097 38.3821 72.6035 38.1016 72.6959Z" fill="black"/>
<path id="Vector_4" d="M33.7339 62.1495L33.7365 71.0052L31.4135 70.0247L31.4113 62.8389L27.2533 61.0838L27.2555 68.2696L24.9324 67.2891L24.9297 58.4333L33.7339 62.1495Z" fill="black"/>
</g>
</svg>
